<?xml version="1.0" standalone="no"?>
<!DOCTYPE svg PUBLIC "-//W3C//DTD SVG 20010904//EN"
 "http://www.w3.org/TR/2001/REC-SVG-20010904/DTD/svg10.dtd">
<svg version="1.0" xmlns="http://www.w3.org/2000/svg"
 width="400.000000pt" height="400.000000pt" viewBox="0 0 400.000000 400.000000"
 preserveAspectRatio="xMidYMid meet">
<metadata>
Created by potrace 1.14, written by Peter Selinger 2001-2017
</metadata>
<g transform="translate(0.000000,400.000000) scale(0.100000,-0.100000)"
fill="#000000" stroke="none">
<path d="M660 3331 c0 -153 -3 -191 -15 -201 -10 -8 -71 -12 -202 -13 l-188
-2 -1 -195 -1 -195 -41 -71 c-48 -84 -85 -170 -118 -279 -24 -80 -27 -89 -38
-155 -3 -19 -8 -48 -11 -65 -3 -16 -8 -84 -10 -150 -6 -177 25 -369 89 -538
54 -143 160 -322 252 -422 l45 -50 -42 64 c-23 35 -65 114 -94 175 -60 127
-83 199 -121 381 -3 17 -8 102 -9 190 -5 247 37 438 141 647 76 152 148 253
268 374 214 214 476 348 784 398 86 15 360 15 427 2 17 -4 44 -9 60 -12 122
-23 302 -91 420 -157 67 -39 196 -129 234 -165 54 -52 94 -85 80 -67 -53 66
-71 87 -140 155 -334 330 -799 461 -1300 365 l-37 -7 0 74 c0 40 0 81 -1 91
-1 16 -18 17 -216 17 l-215 0 0 -189z"/>
<path d="M1040 3099 c-102 -36 -232 -111 -337 -196 -70 -55 -177 -158 -204
-194 l-19 -27 81 0 c44 0 83 -3 86 -5 2 -3 5 -93 5 -201 0 -112 4 -196 9 -197
68 -7 412 -2 418 6 4 6 7 97 7 203 l-1 192 35 1 c19 0 110 1 203 1 l167 1 0
216 0 216 -202 0 c-160 0 -211 -3 -248 -16z"/>
<path d="M3814 2419 c-98 -27 -113 -179 -21 -222 46 -22 85 -21 124 3 41 25
56 53 55 108 -2 81 -76 133 -158 111z m114 -54 c44 -51 21 -134 -43 -155 -88
-29 -159 54 -117 140 30 63 111 70 160 15z"/>
<path d="M3800 2306 c0 -39 5 -68 12 -72 6 -4 13 -3 15 2 12 34 22 38 43 19
11 -10 28 -20 36 -21 14 -2 14 0 1 19 -12 19 -12 25 0 44 14 21 14 26 -1 48
-14 21 -25 25 -61 25 l-45 0 0 -64z m78 17 c-5 -27 -44 -29 -44 -3 0 14 7 20
24 20 17 0 23 -5 20 -17z"/>
<path d="M1430 2298 c-1 -117 -1 -1177 -1 -1243 l1 -61 118 1 117 1 2 478 c1
263 4 480 6 482 2 2 98 -138 213 -311 115 -173 211 -315 214 -315 3 0 75 105
160 233 85 127 157 234 160 237 3 3 30 42 60 88 29 45 55 82 56 82 1 0 2 -215
2 -477 0 -263 1 -483 1 -488 1 -7 46 -11 121 -10 l120 0 0 688 0 688 -132 -3
-132 -3 -65 -103 c-300 -467 -344 -533 -353 -524 -6 6 -58 85 -117 176 -58 91
-148 231 -199 311 l-93 145 -130 0 -129 0 0 -72z"/>
<path d="M2929 2325 c-1 -139 -1 -166 3 -171 3 -2 86 -6 184 -7 162 -3 184 -5
232 -26 95 -42 138 -115 130 -222 -6 -82 -43 -134 -123 -174 -59 -29 -63 -30
-240 -33 -99 -2 -181 -5 -183 -7 -3 -2 -4 -121 -3 -187 l1 -27 112 0 c62 0
114 -4 116 -8 1 -4 56 -84 123 -178 66 -93 136 -194 156 -223 19 -28 40 -55
46 -59 13 -9 287 -11 287 -3 0 3 -82 119 -181 258 -99 140 -179 255 -177 256
1 1 26 12 55 23 160 65 257 206 262 383 5 179 -83 329 -235 396 -96 42 -166
52 -371 54 l-193 1 -1 -46z"/>
<path d="M2960 840 c-71 -13 -117 -64 -124 -139 -8 -85 36 -155 111 -177 45
-13 113 -2 148 23 21 16 24 26 25 83 l0 65 -70 -3 c-53 -3 -70 -7 -70 -18 0
-8 6 -14 13 -13 6 1 31 1 54 0 l43 -1 -2 -41 c-1 -37 -5 -43 -36 -56 -39 -16
-96 -13 -128 7 -75 46 -71 185 6 225 48 25 139 16 160 -16 8 -12 33 7 26 20
-20 31 -97 52 -156 41z"/>
<path d="M1429 833 c-1 -10 -1 -189 0 -260 1 -40 5 -53 16 -53 16 0 16 1 17
153 1 53 4 97 7 97 3 -1 28 -36 55 -79 28 -44 55 -77 60 -75 6 3 31 38 56 79
25 41 48 75 51 75 4 0 7 -42 7 -92 0 -150 1 -158 17 -158 13 0 15 24 15 160 0
151 -1 160 -19 160 -14 0 -36 -26 -73 -85 -29 -46 -55 -85 -58 -85 -3 0 -29
38 -59 85 -36 57 -60 85 -72 85 -11 0 -19 -3 -20 -7z"/>
<path d="M1804 683 l1 -158 113 -2 c89 -2 112 0 112 11 0 20 -15 23 -107 21
-46 0 -84 2 -84 5 -1 3 -2 29 -3 58 l-1 53 60 -1 c108 -3 127 -1 123 13 -3 8
-30 13 -79 14 -41 1 -81 2 -89 2 -12 1 -16 13 -15 54 l1 52 94 3 c52 2 97 5
99 7 1 2 0 8 -4 14 -4 7 -48 11 -114 11 l-108 0 1 -157z"/>
<path d="M2095 683 l0 -158 65 -2 c85 -2 130 10 162 44 47 52 56 126 23 196
-25 52 -81 77 -176 77 l-74 0 0 -157z m159 113 c48 -20 76 -61 76 -110 0 -84
-46 -127 -139 -131 -68 -3 -63 -9 -63 80 0 19 1 67 1 105 l1 70 45 0 c25 0 60
-6 79 -14z"/>
<path d="M2420 679 c0 -147 1 -160 18 -157 14 3 17 14 17 58 l0 55 38 1 c33 1
44 -6 93 -58 48 -50 84 -72 84 -52 0 4 -20 30 -45 59 l-45 53 30 12 c38 16 50
31 57 71 7 46 -15 89 -53 105 -19 8 -68 14 -114 14 l-80 0 0 -161z m196 106
c20 -27 17 -72 -6 -95 -16 -16 -33 -20 -85 -20 -45 0 -65 4 -66 13 -4 37 -5
113 -1 121 3 4 36 6 74 4 54 -3 73 -8 84 -23z"/>
<path d="M2739 828 c-1 -17 -1 -234 0 -275 1 -22 6 -33 16 -33 13 0 15 24 15
160 0 136 -2 160 -15 160 -8 0 -15 -6 -16 -12z"/>
<path d="M3189 800 c0 -22 0 -69 0 -105 0 -172 0 -177 18 -173 14 3 17 15 16
71 -1 75 -9 69 87 69 106 0 102 1 100 -34 -5 -83 0 -110 17 -106 14 3 16 20
16 148 -1 181 0 170 -18 170 -17 0 -17 0 -18 -87 l0 -62 -93 1 -93 2 1 60 c1
83 0 86 -17 86 -11 0 -15 -11 -16 -40z"/>
<path d="M3500 825 c0 -12 13 -15 55 -15 l55 0 1 -52 c2 -203 4 -233 19 -236
13 -2 15 18 15 140 l0 143 58 3 c42 2 57 7 57 17 0 12 -23 15 -130 15 -109 0
-130 -2 -130 -15z"/>
</g>
</svg>
